<svg id="Calque_1" data-name="Calque 1" xmlns="http://www.w3.org/2000/svg" viewBox="0 0 175 47"><defs><style>.cls-1{fill:#f1183e}.cls-2{fill:#cfa052}</style></defs><path id="Fill-2" d="m159.4 23.5-3.1 3.3c-.3.2-.3.6-.1.9l.1.1.5.5c.2.2.6.3.8.1l.1-.1 4.1-4.3c.3-.2.3-.6.1-.9l-.1-.1-4.1-4.3c-.2-.2-.6-.3-.8-.1l-.1.1-.5.5c-.3.2-.3.6-.1.9l.1.1 3.1 3.3z" fill-rule="evenodd" fill="#cfa052"/><path class="cls-2" d="M27.61 13.57c-.4-.17-.83-.24-1.31-.24-1.62 0-2.67.96-2.67 2.39 0 1.24.81 2.06 1.94 2.06s1.94-.89 1.42-2.06c-.83.39-1.78.01-1.78-.72 0-.53.44-.81 1.19-.81 1.43 0 2.35 1.01 2.35 2.39 0 1.56-1.21 2.68-2.81 2.68-1.79 0-3.18-1.4-3.18-3.53 0-2.46 1.83-4.15 4.26-4.17.35 0 .57.26.57.64v1.36zm-.58 7.71h1.58v-.29c-.43 0-.57-.22-.57-.43v-1.25c.89-.58 1.44-1.58 1.44-2.79s-.56-2.19-1.44-2.74v-1.25l4.05 8.75h2.3v-9.39c0-.21.15-.43.58-.43v-.29h-1.58v.29c.43 0 .57.14.57.43v7.69l-3.87-8.42h-3.07c-2.82.01-4.68 1.94-4.68 4.67 0 2.49 1.56 4.01 3.68 4.01.58 0 1.11-.11 1.58-.32v1.03c0 .29-.15.43-.58.43v.29zm10.57-3.56c0-1.79.53-3.14 1.39-3.14s1.4 1.39 1.4 3.15-.58 3.18-1.42 3.18-1.38-1.4-1.38-3.19zm-2.36.03c0 2.17 1.6 3.57 3.76 3.57s3.75-1.4 3.75-3.57-1.6-3.57-3.75-3.57-3.76 1.42-3.76 3.57zm10.5-.59c0-.62.08-2.52.96-2.52.65 0 .92 1.02.92 2.52h-1.89zm.93-2.98c-2.19 0-3.3 1.43-3.3 3.49 0 2.27 1.35 3.63 3.35 3.63 1.66 0 2.73-.92 3.13-2.15h-.3c-.26.52-.82 1.07-1.65 1.07-1.03 0-1.97-.88-2.14-2.63h4.07c0-2.07-1.04-3.41-3.16-3.41z"/><path class="cls-2" d="M53.1 12.39c.05-.83.17-1.6.62-1.6.26 0 .44.23.44.55 0 .5-.45.85-1.06 1.06zm-2.67 8.9h3.16v-.26c-.38 0-.51-.19-.51-.38v-7.22c0-.19.01-.41.01-.64.85-.23 1.45-.68 1.45-1.4 0-.52-.3-.98-1.26-.98-1.22 0-1.99.75-2.25 2.08-1.86-.29-5.7-1.4-7.48-1.4-1.31 0-2.3.56-2.3 1.69 0 1.42 1.52 1.68 2.41 1.12-.33-.47-.21-1.79 1.08-1.79.84 0 4.51.65 6.23.8-.01.16-.02.34-.02.52v7.22c0 .26-.13.38-.51.38v.26zm-32.37-3.04h2.28v-.18c-.28 0-.37-.14-.37-.27v-2.31c0-1.49-.75-1.88-1.5-1.88s-1.17.34-1.4.92v-.83h-.09c-.62.17-1.2.2-1.82.18v.18c.22 0 .37.14.37.36v3.38c0 .18-.1.27-.37.27v.18h2.28v-.18c-.27 0-.37-.14-.37-.27v-2.17c0-.95.42-1.56.78-1.56.24 0 .57.27.57 1.28v2.45c0 .18-.09.27-.36.27v.18zM30.5 32.87h3.48v-.28c-.41 0-.56-.21-.56-.41v-2.3c0-1.74.51-2.92 1.39-2.92.68 0 1.16.68 1.35 1.67h.59v-2.14c-.31-.48-.98-.71-1.52-.71-.83 0-1.44.52-1.81 1.44v-1.31h-.13c-.95.25-1.83.31-2.78.28v.27c.33 0 .56.21.56.55v5.16c0 .28-.15.41-.56.41v.28zm27.67-1.01c-.16.09-.35.17-.52.17-.3 0-.35-.25-.35-.48v-5.74h-.13c-.21 0-.55.12-.94.2-.36.05-.9.08-1.42.08h-.43v.27c.34 0 .55.21.55.55v2.93c0 1.45-.64 2.39-1.18 2.39-.36 0-.89-.42-.89-1.96v-4.46h-.13c-.21 0-.55.12-.94.2-.36.05-.89.08-1.42.08h-.43v.27c.34 0 .56.21.56.55v3.14c0 2.28 1.15 2.87 2.29 2.87s1.78-.52 2.13-1.41v.09c-.01.77.55 1.32 1.52 1.32.78 0 1.38-.36 1.93-.9l-.2-.16zM18.86 28.8c0-.62.08-2.52.96-2.52.65 0 .92 1.02.92 2.52h-1.89zm.93-2.99c-2.19 0-3.3 1.43-3.3 3.49 0 2.27 1.35 3.63 3.35 3.63 1.66 0 2.73-.92 3.13-2.15h-.3c-.26.52-.82 1.07-1.65 1.07-1.03 0-1.97-.88-2.14-2.63h4.07c0-2.07-1.04-3.41-3.16-3.41zm6.12 2.99c0-.62.08-2.52.96-2.52.65 0 .92 1.02.92 2.52H25.9zm.94-2.99c-2.19 0-3.3 1.43-3.3 3.49 0 2.27 1.35 3.63 3.35 3.63 1.66 0 2.73-.92 3.13-2.15h-.3c-.26.52-.82 1.07-1.65 1.07-1.03 0-1.97-.88-2.14-2.63h4.07c0-2.07-1.04-3.41-3.16-3.41zm10.71 7.11h3.55v-.29c-.42 0-.57-.22-.57-.42v-6.4h-.14c-.97.26-1.87.31-2.84.29v.27c.34 0 .57.22.57.56v5.27c0 .29-.15.42-.57.42v.29zm.3-8.68c0 .83.55 1.41 1.39 1.41s1.39-.57 1.39-1.41-.56-1.41-1.39-1.41-1.39.56-1.39 1.41zm8.96 2.4v4.49c-.31.64-.97 1.29-1.45 1.29-.67 0-.99-1.24-.99-2.73 0-2.26.74-3.65 1.49-3.65.34 0 .67.27.95.6zm-.91-1.02c-2.3 0-3.91 1.46-3.91 3.91 0 2.01 1.09 3.34 2.75 3.34.95 0 1.6-.44 2.07-.97v3.14c-.07.13-.23.2-.52.2v.28h3.49v-.28c-.42 0-.55-.21-.55-.42h-.04v-8.25c-.86-.82-2.55-.97-3.29-.97z"/><path class="cls-2" d="M19.16 19.46c-.75 0-1.12.38-1.31.69.25.12.62.56.62 1.12s-.44 1.25-1.62 1.25c-2.99 0-5.49.18-8.05.18-1.56 0-2.75.94-2.75 2.31 0 1.19.94 1.68 1.56 1.68s1.06-.44 1.06-.62c0-.12-1.06-.62-1.06-1.68 0-.87.81-1.19 1.44-1.19s1.25.06 1.81.19v8.55c0 .25-.12.62-.56.62v.37h3.43v-.37c-.44 0-.56-.37-.56-.62v-3.87h1.81c.31 0 .56.19.56.62h.37v-1.94h-.37c0 .5-.25.69-.56.69h-1.81V23.3c1.75.56 3.37 1.03 5.06 1.03 1.25 0 2.93-.75 2.93-2.56s-1.19-2.31-2-2.31zm41.78 9.33c0-.62.08-2.52.96-2.52.65 0 .92 1.01.92 2.52h-1.89zm.93-2.97c-2.19 0-3.3 1.42-3.3 3.47s1.16 3.64 3.23 3.64c2.95 0 4.43-3.14 5.79-3.14.7 0 1.16.84.84 1.65 1.28.28 2-.32 2-1.23s-.73-1.38-1.71-1.38c-2.5 0-3.56 3.02-5.56 3.02-1.09 0-2.03-.88-2.2-2.62h4.06c0-2.07-1.04-3.4-3.15-3.4z"/><circle class="cls-2" cx="46.05" cy="13.35" r=".4"/><circle class="cls-2" cx="47.18" cy="13.35" r=".4"/><path class="cls-2" d="m21.14 25.13-2.23.4-.08-.37 2.2-.65.11.62zm6.87 0-2.23.4-.08-.37 2.2-.65.11.62zM12.2 18.25c1.41 0 2.44-.88 2.44-2.29v-3.75c0-.13.1-.27.37-.27v-.18h-1.28v.18c.27 0 .55.09.55.27v3.93c0 1.03-.69 1.74-1.59 1.74s-1.46-.66-1.46-1.74v-3.93c0-.13.28-.27.55-.27v-.18H9.31v.18c.27 0 .37.09.37.27v3.76c0 1.4 1.11 2.27 2.52 2.27z"/><path class="cls-1" d="M107.97 12.34a.63.63 0 0 1-.29.1c-.16 0-.19-.14-.19-.26V9.04h-.07c-.12 0-.3.07-.51.11-.2.03-.49.04-.78.04h-.23v.15c.18 0 .3.12.3.3v1.6c0 .79-.35 1.31-.65 1.31-.2 0-.48-.23-.48-1.07V9.05H105c-.12 0-.3.07-.51.11-.2.03-.48.04-.78.04h-.23v.15c.18 0 .31.12.31.3v1.72c0 1.25.63 1.57 1.25 1.57s.98-.29 1.17-.77v.05c0 .42.3.72.83.72.43 0 .76-.2 1.06-.49l-.11-.09zm12.36 0a.63.63 0 0 1-.29.1c-.16 0-.19-.14-.19-.26V9.04h-.07c-.12 0-.3.07-.51.11-.2.03-.49.04-.78.04h-.23v.15c.18 0 .3.12.3.3v1.6c0 .79-.35 1.31-.65 1.31-.2 0-.48-.23-.48-1.07V9.05h-.07c-.12 0-.3.07-.51.11-.2.03-.48.04-.78.04h-.23v.15c.18 0 .31.12.31.3v1.72c0 1.25.63 1.57 1.25 1.57s.98-.29 1.17-.77v.05c0 .42.3.72.83.72.43 0 .76-.2 1.06-.49l-.11-.09zm-9.13-2.83c-.35-.27-.92-.37-1.34-.37-.83 0-1.42.39-1.42 1.1 0 1.27 1.87 1.23 1.87 1.95 0 .24-.21.44-.58.44-.69 0-.87-.69-.98-1.23h-.31v1.11c.34.27.84.37 1.29.37 1.01 0 1.6-.49 1.6-1.13 0-1.13-1.87-1.23-1.87-1.97 0-.22.18-.4.49-.4.64 0 .82.69.93 1.23h.3V9.5zm2.97.14v2.32c-.16.33-.5.67-.75.67-.35 0-.51-.64-.51-1.41 0-1.17.38-1.89.77-1.89.17 0 .35.14.49.31zm-.48-.53c-1.19 0-2.02.76-2.02 2.02 0 1.04.56 1.73 1.43 1.73.49 0 .83-.23 1.07-.5V14c-.03.07-.12.1-.27.1v.15h1.81v-.15c-.22 0-.29-.11-.29-.22h-.02V9.61c-.45-.42-1.32-.5-1.7-.5zm12.15 3.55c.36.08.6.31.6.65 0 .22-.1.35-.24.35-.28 0-.34-.5-.36-.99zm-1.24-.86c-.11.28-.31.48-.62.48-.15 0-.43-.05-.43-.42 0-.51.51-.88 1.05-.93v.87zm-.59-2.72c-.42 0-.99.1-1.34.37v1.11h.31c.13-.65.45-1.26.97-1.26s.6.61.63 1.45c-.99 0-2.27.1-2.27 1.1 0 .54.38.99 1.06.99.42 0 .9-.17 1.22-.68 0 .17.01.33.04.49-.92.46-1.52 1.53-2.38 1.53-.72 0-.79-.75-.6-1.02-.16-.1-.36-.16-.56-.16-.42 0-.82.25-.82.8 0 .65.56.96 1.26.96 1.41 0 2.16-1.33 3.15-1.87.18.64.61 1 1.24 1 .55 0 .72-.26.72-.58 0-.43-.33-.74-.83-.84v-1.64c0-1.03-.72-1.73-1.82-1.73zm-2.51-.43c.07-.3-.07-.6-.31-.77-.02-.02-.04-.03-.06-.05a.452.452 0 0 1-.13-.34c0-.16.06-.3.18-.4.12-.1.27-.15.47-.15.24 0 .44.08.58.25.14.17.21.4.21.69 0 .46-.18.8-.53 1.01-.23.13-.77.34-.64.2s.2-.29.24-.44zm1.92-.12 1.51.27.06-.25-1.5-.44-.07.42zM103.2 6.88c-.35.11-.63.11-.99.11-.74 0-1.37-.14-1.72-.14-.88 0-1.55.49-1.55 1.27 0 .7.53.95.91.95.32 0 .56-.25.56-.32s-.56-.39-.56-.95c0-.49.28-.74.63-.74.39 0 .77.39 1.09.7v5.17c0 .32-.35.6-.67.6-.39 0-.67-.32-.67-.77 0-.32.14-.49.28-.6-.07-.14-.28-.46-.67-.46-.56 0-1.02.6-1.02 1.06 0 1.06.92 1.44 1.44 1.44 1.34 0 1.55-1.02 2.6-1.3V7.58c0-.18.11-.32.32-.42v-.28zM105.16 18.01H94.58c-2.34 0-2.71.28-2.8.65-.38 1.5-1.03 4.02-1.03 4.02s.94-.65 3.18-.65h9.16c-4.12 3.84-10.11 10.01-10.11 15.25h4.96c0-6.08 7.79-17.12 7.79-18.53 0-.19-.37-.75-.56-.75zm7.44 0c-4.3 0-7.49 4.68-7.49 10.2s2.71 9.08 7.49 9.08 7.49-4.02 7.49-9.83c0-4.68-3.56-9.45-7.49-9.45zm.1 18.53c-1.68 0-2.71-4.21-2.71-8.52 0-5.9 1.59-9.17 2.62-9.17 1.87 0 2.71 4.49 2.71 9.17 0 4.4-1.03 8.52-2.62 8.52zM83.21 26.16h6.48v2.71h-6.48zm56.95-7.52-13.7 18.89-2.99-.02 13.7-18.91 2.99.04zM124.8 22.6c0-2.3.68-4.04 1.79-4.04s1.81 1.79 1.81 4.06-.75 4.09-1.82 4.09-1.77-1.81-1.77-4.11zm-3.03.04c0 2.8 2.06 4.6 4.84 4.6s4.83-1.81 4.83-4.6-2.06-4.6-4.83-4.6-4.84 1.82-4.84 4.6zm13.89 10.27c0-2.3.68-4.04 1.79-4.04s1.81 1.79 1.81 4.06-.75 4.09-1.82 4.09-1.77-1.81-1.77-4.11zm-3.04.03c0 2.8 2.06 4.6 4.84 4.6s4.83-1.81 4.83-4.6-2.06-4.6-4.83-4.6-4.84 1.82-4.84 4.6z"/></svg>