<svg id="Calque_1" data-name="Calque 1" xmlns="http://www.w3.org/2000/svg" viewBox="0 0 101.4 42.35"><defs><style>.cls-1{fill:#bf0000}</style></defs><path d="M19.7 17.25a6.88 6.88 0 0 0-2.8-4.6 9.42 9.42 0 0 0-5.3-1.4 8.07 8.07 0 0 0-4 .9 8.29 8.29 0 0 0-2.8 2.5 9.9 9.9 0 0 0-1.6 3.6 20 20 0 0 0-.5 4.3 19.74 19.74 0 0 0 .4 4.2 11.05 11.05 0 0 0 1.5 3.7 7.76 7.76 0 0 0 2.8 2.6 8.43 8.43 0 0 0 4.4 1 9.3 9.3 0 0 0 3-.5 7.41 7.41 0 0 0 2.4-1.5 7.3 7.3 0 0 0 1.7-2.2 13.47 13.47 0 0 0 1.1-2.8h2.5a14.6 14.6 0 0 1-1.3 3.5 9.07 9.07 0 0 1-2.2 2.9 10.73 10.73 0 0 1-3.3 2 12.51 12.51 0 0 1-4.5.7 11.25 11.25 0 0 1-5.1-1.1 9.93 9.93 0 0 1-3.5-2.9 14.19 14.19 0 0 1-2-4.3 21.18 21.18 0 0 1-.6-5.2 18.9 18.9 0 0 1 .9-6.2 11 11 0 0 1 2.5-4.2 12.49 12.49 0 0 1 4-2.3 14.73 14.73 0 0 1 4.8-.7 14.92 14.92 0 0 1 3.7.5 9.39 9.39 0 0 1 3 1.5 7.25 7.25 0 0 1 2.1 2.5 12.1 12.1 0 0 1 1.2 3.5ZM25.8 35.85V9.05h2.3v26.8ZM44.6 16.55h2.3v19.3h-2.3v-2.7c-.3.3-.6.7-1 1.1a6.62 6.62 0 0 1-1.3 1 9.08 9.08 0 0 1-1.7.8 8.12 8.12 0 0 1-2.3.3 10.57 10.57 0 0 1-3.3-.5 5.71 5.71 0 0 1-2.1-1.5 7.72 7.72 0 0 1-1.2-2.2 12.61 12.61 0 0 1-.4-2.8v-12.8h2.3v12.6A5.42 5.42 0 0 0 34.8 33a4.89 4.89 0 0 0 3.8 1.3 6.49 6.49 0 0 0 2.5-.5 6.93 6.93 0 0 0 1.9-1.5 7.23 7.23 0 0 0 1.2-2.3 9.2 9.2 0 0 0 .4-2.9ZM52.4 35.85h-2.3V9.05h2.3v10.6a6.55 6.55 0 0 1 3-2.7 9.63 9.63 0 0 1 7.9-.1 8.58 8.58 0 0 1 2.7 2.2 10.11 10.11 0 0 1 1.6 3.3 12.23 12.23 0 0 1 .5 3.9 17.39 17.39 0 0 1-.5 4 7.45 7.45 0 0 1-1.6 3.2 7 7 0 0 1-2.7 2.1 9.48 9.48 0 0 1-4 .8 6.14 6.14 0 0 1-1.9-.3 10.83 10.83 0 0 1-1.9-.7 6.54 6.54 0 0 1-1.7-1.2 7.67 7.67 0 0 1-1.3-1.7h-.1Zm0-9.7a11.89 11.89 0 0 0 .4 3.3 7.07 7.07 0 0 0 1.3 2.6 6 6 0 0 0 2.1 1.7 6.44 6.44 0 0 0 2.8.6 7 7 0 0 0 2.6-.5 5.08 5.08 0 0 0 2.1-1.5A5.7 5.7 0 0 0 65.1 30a10.19 10.19 0 0 0 .5-3.2 19.36 19.36 0 0 0-.3-3.4 10.21 10.21 0 0 0-1.2-2.8 7.62 7.62 0 0 0-2.1-1.9 5.82 5.82 0 0 0-3-.7 5.5 5.5 0 0 0-2.8.7 6.78 6.78 0 0 0-2.1 1.7 7.07 7.07 0 0 0-1.3 2.6 11.21 11.21 0 0 0-.4 3.15Z"/><g id="Logos"><path class="cls-1" d="m74.7 42.35-4.4-3.7h31.1l-26.7 3.7zM79.8 35.85v-8.3h3.6l6.2 8.3h6.3l-7.5-10a9.2 9.2 0 0 0-5.3-16.7h-8.4v26.6Zm0-21.6h3.3a4.1 4.1 0 1 1 0 8.2h-3.3Z"/></g></svg>